<?xml version="1.0" standalone="no"?>
<!DOCTYPE svg PUBLIC "-//W3C//DTD SVG 20010904//EN"
 "http://www.w3.org/TR/2001/REC-SVG-20010904/DTD/svg10.dtd">
<svg version="1.0" xmlns="http://www.w3.org/2000/svg"
 width="177.000000pt" height="177.000000pt" viewBox="0 0 177.000000 177.000000"
 preserveAspectRatio="xMidYMid meet">
<metadata>
Created by potrace 1.14, written by Peter Selinger 2001-2017
</metadata>
<g transform="translate(0.000000,177.000000) scale(0.100000,-0.100000)"
fill="#000000" stroke="none">
<path d="M688 1700 c-320 -81 -561 -340 -618 -666 -16 -89 -8 -287 14 -369 25
-91 91 -221 152 -302 97 -126 252 -234 409 -283 107 -34 301 -39 417 -11 326
78 570 336 628 667 16 89 8 287 -14 369 -25 91 -91 221 -152 302 -97 126 -252
234 -409 283 -102 33 -319 38 -427 10z m-326 -650 c-2 -17 2 -37 9 -46 70 -85
269 -44 245 51 l-6 24 52 -15 c66 -20 97 -41 104 -70 8 -29 -8 -49 -56 -74
-116 -59 -392 -49 -470 17 -56 46 -33 91 62 124 68 24 65 24 60 -11z m762 6
c-13 -53 45 -98 126 -98 80 0 139 45 126 97 -6 22 -5 23 37 13 23 -5 59 -20
80 -34 31 -20 38 -30 35 -52 -4 -31 -50 -66 -112 -84 -53 -17 -279 -17 -332 0
-94 28 -139 86 -96 125 17 15 113 56 135 57 4 0 5 -11 1 -24z m-535 -491 c15
-59 68 -117 139 -152 50 -25 68 -28 152 -28 84 0 102 3 152 28 71 35 124 93
139 152 10 38 15 45 36 45 24 0 25 -2 18 -37 -19 -103 -108 -184 -240 -219
-172 -46 -374 33 -436 170 -26 58 -25 86 5 86 20 0 25 -7 35 -45z"/>
</g>
</svg>
